HIERARCHY
ROOT Hips
{
 OFFSET 0.000000 0.000000 0.000000
 CHANNELS 6 Xposition Yposition Zposition Yrotation Xrotation Zrotation
 JOINT Chest
 {
  OFFSET 0.000000 9.585900 0.002600
  CHANNELS 3 Yrotation Xrotation Zrotation
  JOINT Chest2
  {
   OFFSET 0.000000 9.601200 -0.005300
   CHANNELS 3 Yrotation Xrotation Zrotation
   JOINT Chest3
   {
    OFFSET 0.000000 9.561800 0.000000
    CHANNELS 3 Yrotation Xrotation Zrotation
    JOINT Chest4
    {
     OFFSET 0.000000 9.552100 0.000000
     CHANNELS 3 Yrotation Xrotation Zrotation
     JOINT Neck
     {
      OFFSET 0.000000 14.453000 0.000000
      CHANNELS 3 Yrotation Xrotation Zrotation
      JOINT Head
      {
       OFFSET 0.000000 8.936500 -0.011300
       CHANNELS 3 Yrotation Xrotation Zrotation
       End Site
       {
        OFFSET 0.000000 17.073600 -0.006000
       }
      }
     }
     JOINT RightCollar
     {
      OFFSET -2.921100 9.558500 0.000000
      CHANNELS 3 Yrotation Xrotation Zrotation
      JOINT RightShoulder
      {
       OFFSET -13.519700 0.000000 0.000000
       CHANNELS 3 Yrotation Xrotation Zrotation
       JOINT RightElbow
       {
        OFFSET 0.000000 -29.696600 0.000000
        CHANNELS 3 Yrotation Xrotation Zrotation
        JOINT RightWrist
        {
         OFFSET 0.000000 -24.004700 0.000000
         CHANNELS 3 Yrotation Xrotation Zrotation
         End Site
         {
          OFFSET 0.000000 -17.728500 0.000000
         }
        }
       }
      }
     }
     JOINT LeftCollar
     {
      OFFSET 2.921100 9.558500 0.000000
      CHANNELS 3 Yrotation Xrotation Zrotation
      JOINT LeftShoulder
      {
       OFFSET 13.519700 0.000000 0.000000
       CHANNELS 3 Yrotation Xrotation Zrotation
       JOINT LeftElbow
       {
        OFFSET 0.000000 -29.696600 0.000000
        CHANNELS 3 Yrotation Xrotation Zrotation
        JOINT LeftWrist
        {
         OFFSET 0.000000 -24.004700 0.000000
         CHANNELS 3 Yrotation Xrotation Zrotation
         End Site
         {
          OFFSET 0.000000 -17.728500 0.000000
         }
        }
       }
      }
     }
    }
   }
  }
 }
 JOINT RightHip
 {
  OFFSET -7.771700 -0.012900 -0.001300
  CHANNELS 3 Yrotation Xrotation Zrotation
  JOINT RightKnee
  {
   OFFSET 0.000000 -40.869800 0.001200
   CHANNELS 3 Yrotation Xrotation Zrotation
   JOINT RightAnkle
   {
    OFFSET 0.000000 -39.717900 0.002100
    CHANNELS 3 Yrotation Xrotation Zrotation
    JOINT RightToe
    {
     OFFSET 0.000000 -4.965400 11.033500
     CHANNELS 3 Yrotation Xrotation Zrotation
     End Site
     {
      OFFSET 0.000000 -1.423100 5.872300
     }
    }
   }
  }
 }
 JOINT LeftHip
 {
  OFFSET 7.771700 -0.012900 -0.001300
  CHANNELS 3 Yrotation Xrotation Zrotation
  JOINT LeftKnee
  {
   OFFSET 0.000000 -40.869800 0.001200
   CHANNELS 3 Yrotation Xrotation Zrotation
   JOINT LeftAnkle
   {
    OFFSET 0.000000 -39.717900 0.002100
    CHANNELS 3 Yrotation Xrotation Zrotation
    JOINT LeftToe
    {
     OFFSET 0.000000 -4.965400 11.033500
     CHANNELS 3 Yrotation Xrotation Zrotation
     End Site
     {
      OFFSET 0.000000 -1.423100 5.872300
     }
    }
   }
  }
 }
}
MOTION
Frames: 11
Frame Time: 0.008333
0.000000 85.388000 0.000000 0.000000 -5.767877 0.000000 0.000000 11.653817 0.000000 0.000000 -5.885947 0.000000 0.000000 -0.000000 0.000000 0.000000 -0.000000 0.000000 0.000000 12.528835 0.000000 0.000000 0.711642 0.000000 0.000000 -0.000000 0.000000 0.000000 0.000000 -90.000000 0.000000 -2.309062 0.000000 0.000000 2.309062 0.000000 0.000000 -0.000000 0.000000 0.000000 -0.000000 90.000000 0.000000 -2.309062 0.000000 0.000000 2.309062 0.000000 0.000000 8.520406 0.000000 0.000000 1.905762 0.000000 -0.000000 -4.658285 0.000000 0.000000 -0.000000 0.000000 0.000000 8.520406 0.000000 0.000000 1.905762 0.000000 -0.000000 -4.658285 0.000000 0.000000 -0.000000 0.000000
-57.095200 55.179305 48.766954 -179.126970 -31.271007 -11.363582 0.556578 16.815902 6.532599 -0.121579 9.489388 2.449905 -0.068612 11.858657 3.115193 -0.140695 9.504084 2.417592 2.145876 23.315890 -1.266069 2.616222 -0.606946 -1.849699 -3.689741 -2.375329 -12.975983 -4.970624 3.319944 -20.295448 -172.096635 -72.469904 -148.089437 27.817352 14.138975 30.064880 -9.149927 -4.933943 3.137747 -11.660419 6.091574 29.868996 -130.798983 -74.764237 111.069117 -4.068999 -3.002830 -15.110363 -19.582823 -35.034959 5.601964 -7.658430 87.139259 -11.353310 1.613429 -17.512244 1.668319 -0.008356 0.421398 -0.019017 -15.716681 -46.986541 16.503431 166.930426 78.631747 162.153639 -0.947922 -15.681973 1.666992 -1.441677 -3.247683 -0.650918
-57.080663 55.170185 48.741227 -179.108955 -31.118306 -11.410711 0.598342 16.807561 6.558972 -0.147424 9.416238 2.457136 -0.109499 11.782009 3.100546 -0.123328 9.492075 2.447403 2.073206 23.073373 -1.335720 2.572032 -0.852739 -1.882330 -3.723513 -2.552784 -12.962839 -5.079658 3.279677 -20.375294 -172.121060 -72.579952 -148.049516 27.833867 14.100830 30.068463 -9.113224 -5.113413 3.040070 -11.580912 6.128125 29.839772 -130.427281 -74.948830 110.682946 -4.029020 -2.979278 -15.106886 -19.664294 -35.151131 5.701638 -7.745855 87.171340 -11.433414 1.655689 -17.551894 1.658834 -0.035942 0.419244 -0.017393 -15.884842 -47.109305 16.651092 167.035635 78.589248 162.235375 -0.935568 -15.757404 1.663572 -1.452882 -3.214119 -0.655919
-57.068750 55.163608 48.706718 -179.087613 -30.983458 -11.445360 0.596580 16.742546 6.575700 -0.161623 9.376306 2.465156 -0.108503 11.764745 3.044315 -0.145812 9.430934 2.478392 2.020746 22.838239 -1.371057 2.500961 -1.136883 -1.912236 -3.743704 -2.687356 -12.909636 -5.192437 3.246942 -20.455660 -172.291498 -72.656201 -147.891754 27.860702 14.039444 30.029598 -9.067679 -5.251943 2.947811 -11.488298 6.159247 29.798160 -129.887336 -75.049899 110.166442 -4.004519 -2.983043 -15.102938 -19.726099 -35.250758 5.783202 -8.267587 87.207120 -11.936270 1.623900 -17.598904 1.670208 -0.037800 0.422954 -0.018984 -16.038609 -47.212307 16.769692 167.176075 78.546273 162.349738 -0.918984 -15.822110 1.654071 -1.455977 -3.198512 -0.656804
-57.060318 55.159248 48.666801 -179.070196 -30.865240 -11.465399 0.588334 16.670854 6.579726 -0.152613 9.376781 2.452485 -0.121889 11.708559 3.062935 -0.157002 9.389251 2.462772 1.940164 22.577468 -1.404064 2.403436 -1.458720 -1.940420 -3.780943 -2.815229 -12.845428 -5.305544 3.231244 -20.527727 -172.658598 -72.685464 -147.573720 27.894162 13.952751 29.928190 -9.034922 -5.382527 2.835444 -11.392575 6.184277 29.746140 -129.124684 -75.016874 109.495977 -3.994955 -3.017824 -15.090531 -19.776063 -35.338849 5.838449 -8.727145 87.247950 -12.381718 1.613971 -17.646262 1.663926 -0.040154 0.414501 -0.008869 -16.171731 -47.300209 16.861265 167.322910 78.502855 162.469217 -0.906881 -15.870533 1.646742 -1.455335 -3.194634 -0.650369
-57.055275 55.153950 48.629688 -179.063204 -30.727866 -11.473733 0.605003 16.627324 6.576540 -0.148142 9.331955 2.456825 -0.149870 11.652953 3.083469 -0.155288 9.351031 2.454794 1.829747 22.275479 -1.450344 2.274192 -1.820709 -1.963657 -3.822741 -2.953638 -12.779740 -5.416773 3.243336 -20.583694 -173.220227 -72.672887 -147.098510 27.914017 13.853291 29.740948 -8.998965 -5.520074 2.695366 -11.299010 6.206358 29.678333 -128.131639 -74.834542 108.674851 -3.994600 -3.078786 -15.065757 -19.836281 -35.449390 5.898958 -9.176419 87.286718 -12.829271 1.613423 -17.697632 1.663950 -0.042270 0.411197 -0.004716 -16.308731 -47.409017 16.957859 167.489176 78.463771 162.601389 -0.906584 -15.912706 1.654007 -1.439458 -3.198645 -0.657491
-57.054187 55.147271 48.598373 -179.057400 -30.565302 -11.476033 0.609750 16.564989 6.577808 -0.147662 9.273708 2.464408 -0.156564 11.601798 3.085017 -0.122900 9.277699 2.458926 1.657036 21.966975 -1.494327 2.110798 -2.221132 -1.979433 -3.901909 -3.055605 -12.696515 -5.531791 3.285060 -20.619438 -173.916629 -72.638615 -146.519923 27.899572 13.749185 29.442933 -8.997587 -5.622354 2.538044 -11.203215 6.232097 29.587168 -126.939985 -74.514798 107.734060 -3.993511 -3.160540 -15.029426 -19.896196 -35.588063 5.971321 -10.033746 87.317117 -13.698509 1.627540 -17.748373 1.686123 -0.045742 0.416909 -0.008511 -16.424788 -47.549380 17.038561 167.635017 78.432617 162.730397 -0.915858 -15.959379 1.652838 -1.417623 -3.190251 -0.650307
-57.056421 55.140241 48.573308 -179.061597 -30.387934 -11.474067 0.612828 16.468933 6.582916 -0.139616 9.223551 2.468129 -0.111817 11.529706 3.091773 -0.139614 9.223502 2.468145 1.459497 21.611562 -1.541903 1.916788 -2.654058 -1.986021 -3.971549 -3.146225 -12.595708 -5.665200 3.351356 -20.631873 -174.659713 -72.606785 -145.912503 27.834671 13.641483 29.014841 -8.990435 -5.727250 2.367285 -11.100169 6.273046 29.466179 -125.610031 -74.088213 106.723844 -3.981857 -3.271657 -14.977276 -19.948637 -35.745804 6.032828 -10.376995 87.343619 -14.040155 1.657591 -17.794564 1.690081 -0.050444 0.426598 -0.009172 -16.545737 -47.705792 17.129604 167.756987 78.406658 162.833060 -0.935622 -16.002828 1.651709 -1.388504 -3.178004 -0.639939
-57.067992 55.131152 48.556538 -179.051867 -30.180249 -11.443243 0.568360 16.302061 6.547099 -0.134902 9.197193 2.469205 -0.106121 11.496661 3.093206 -0.105800 9.130413 2.459879 1.250410 21.219225 -1.585945 1.700252 -3.114739 -1.982183 -4.024570 -3.205899 -12.473301 -5.826173 3.432619 -20.618137 -175.371812 -72.600945 -145.337272 27.698797 13.534451 28.440905 -8.970726 -5.830789 2.186427 -10.990640 6.346286 29.312354 -124.214852 -73.592359 105.703582 -3.952029 -3.417237 -14.894062 -20.011076 -35.950396 6.063109 -10.463327 87.377656 -14.134050 1.685730 -17.835757 1.680577 -0.027585 0.435778 0.003402 -16.701702 -47.894300 17.210578 167.826533 78.382247 162.848435 -0.983613 -16.047138 1.651595 -1.338624 -3.154632 -0.624857
-57.078518 55.127166 48.540693 -179.069677 -30.011142 -11.425106 0.559793 16.159141 6.538888 -0.104577 9.150294 2.465133 -0.086078 11.404118 3.091166 -0.102204 9.085620 2.461715 1.031785 20.803284 -1.625217 1.473007 -3.599501 -1.970748 -4.080227 -3.221801 -12.332483 -6.009676 3.514645 -20.575809 -175.994069 -72.647501 -144.841844 27.472449 13.427809 27.707752 -8.950109 -5.928944 1.993710 -10.880749 6.464281 29.123078 -122.791281 -73.057110 104.710376 -3.894700 -3.587263 -14.761180 -20.062060 -36.109860 6.129091 -10.758633 87.393719 -14.441444 1.655915 -17.858348 1.693096 -0.033966 0.438160 0.007814 -16.829986 -48.045250 17.301651 167.862696 78.362583 162.840750 -1.002621 -16.058041 1.652893 -1.314651 -3.161634 -0.618805
-57.089698 55.126046 48.529151 -179.097842 -29.853632 -11.414701 0.599641 16.058441 6.543858 -0.099428 9.039349 2.464132 -0.062790 11.299183 3.087371 -0.099400 9.039408 2.464059 0.813258 20.368973 -1.661602 1.245929 -4.101442 -1.955978 -4.142599 -3.191376 -12.181016 -6.208442 3.583818 -20.498124 -176.489183 -72.774069 -144.460849 27.148186 13.318742 26.812168 -8.928883 -6.018236 1.792666 -10.773701 6.626164 28.896276 -121.334731 -72.511488 103.745166 -3.801612 -3.771919 -14.567395 -20.104060 -36.254998 6.190641 -10.722392 87.401512 -14.408951 1.661707 -17.871216 1.695964 -0.076913 0.440556 0.006423 -16.936230 -48.184835 17.386766 167.889438 78.349899 162.844520 -1.018778 -16.072052 1.643375 -1.289203 -3.162374 -0.604193
